HIERARCHY
ROOT Hips
{
	OFFSET 0.000000 88.474243 0.000000
	CHANNELS 6 Xposition Yposition Zposition Zrotation Yrotation Xrotation 
	JOINT Hips_Spine
	{
		OFFSET 0.000000 0.000000 0.000000
		CHANNELS 3 Zrotation Yrotation Xrotation
		JOINT Spine
		{
			OFFSET 0.005100 8.711998 -0.691000
			CHANNELS 3 Zrotation Yrotation Xrotation
			JOINT Spine1
			{
				OFFSET -0.009200 8.660301 -1.275000
				CHANNELS 3 Zrotation Yrotation Xrotation
				JOINT Spine2
				{
					OFFSET 0.006300 9.852501 -1.857000
					CHANNELS 3 Zrotation Yrotation Xrotation
					JOINT Spine2_Neck
					{
						OFFSET 0.000000 0.000000 0.000000
						CHANNELS 3 Zrotation Yrotation Xrotation
						JOINT Neck
						{
							OFFSET 0.016300 11.420799 -0.263300
							CHANNELS 3 Zrotation Yrotation Xrotation
							End Site #name: Head
							{
								OFFSET -0.019200 9.262405 2.362500
							}
						}
					}
					JOINT Spine2_LeftShoulder
					{
						OFFSET 0.000000 0.000000 0.000000
						CHANNELS 3 Zrotation Yrotation Xrotation
						JOINT LeftShoulder
						{
							OFFSET 5.616900 6.732201 -0.345700
							CHANNELS 3 Zrotation Yrotation Xrotation
							JOINT LeftArm
							{
								OFFSET 10.664888 -0.183372 -2.440700
								CHANNELS 3 Zrotation Yrotation Xrotation
								JOINT LeftForeArm
								{
									OFFSET 27.459126 0.000000 0.000000
									CHANNELS 3 Zrotation Yrotation Xrotation
									End Site #name: LeftHand
									{
										OFFSET 21.306858 0.000000 0.000000
									}
								}
							}
						}
					}
					JOINT Spine2_RightShoulder
					{
						OFFSET 0.000000 0.000000 0.000000
						CHANNELS 3 Zrotation Yrotation Xrotation
						JOINT RightShoulder
						{
							OFFSET -5.580300 6.737503 -0.344400
							CHANNELS 3 Zrotation Yrotation Xrotation
							JOINT RightArm
							{
								OFFSET -10.679335 -0.188484 -2.383900
								CHANNELS 3 Zrotation Yrotation Xrotation
								JOINT RightForeArm
								{
									OFFSET -27.503529 0.000000 0.000000
									CHANNELS 3 Zrotation Yrotation Xrotation
									End Site #name: RightHand
									{
										OFFSET -21.306808 0.000000 0.000000
									}
								}
							}
						}
					}
				}
			}
		}
	}
	JOINT Hips_LeftUpLeg
	{
		OFFSET 0.000000 0.000000 0.000000
		CHANNELS 3 Zrotation Yrotation Xrotation
		JOINT LeftUpLeg
		{
			OFFSET 6.857700 -6.739601 0.312100
			CHANNELS 3 Zrotation Yrotation Xrotation
			JOINT LeftLeg
			{
				OFFSET -0.367590 -34.731552 -4.572400
				CHANNELS 3 Zrotation Yrotation Xrotation
				End Site #name: LeftFoot
				{
					OFFSET 0.367590 -34.656704 -6.067400
				}
			}
		}
	}
	JOINT Hips_RightUpLeg
	{
		OFFSET 0.000000 0.000000 0.000000
		CHANNELS 3 Zrotation Yrotation Xrotation
		JOINT RightUpLeg
		{
			OFFSET -6.876100 -6.733299 0.301000
			CHANNELS 3 Zrotation Yrotation Xrotation
			JOINT RightLeg
			{
				OFFSET 0.347353 -34.795158 -4.515900
				CHANNELS 3 Zrotation Yrotation Xrotation
				End Site #name: RightFoot
				{
					OFFSET -0.347353 -34.589367 -6.070300
				}
			}
		}
	}
}
MOTION
Frames: 10
Frame Time: 0.041667
-1.051669 1.861292 0.347617 8.832952 47.845925 -16.814531 0.000000 -0.000000 0.000000 -7.915314 4.786586 -26.330795 5.816062 -8.669334 -5.829789 0.000000 0.000000 0.000000 3.927964 -0.727810 0.782004 -14.029084 -1.834092 -7.209169 14.199843 2.635574 -7.312012 -54.990441 -31.288449 7.457632 -156.682014 46.398019 -115.788093 -179.636369 -31.828081 177.089071 5.595711 3.059931 -4.063125 9.495396 5.482260 6.052522 165.348416 69.453059 38.780311 0.457950 28.363175 4.570813 0.000000 -0.000000 0.000000 40.604879 6.085744 36.351806 59.036723 27.311522 108.598342 -0.000000 -0.000000 0.000000 82.083286 8.309989 -3.763362 -14.752349 7.534929 -81.156430 
-2.611952 4.350961 0.343450 14.513689 42.887384 -16.772961 0.000000 -0.000000 0.000000 -1.420025 8.735121 -51.141161 3.767006 -6.276459 7.080297 0.000000 0.000000 0.000000 -2.088010 1.807480 2.479733 -27.280085 5.367191 -10.154744 16.209406 0.637728 -8.389946 -81.353206 -34.064254 16.066008 -155.600644 44.618726 -120.050235 175.542106 -30.714619 178.651018 6.711695 1.617943 -12.378791 19.774684 17.786647 -0.741031 -86.705173 88.874047 143.786733 -3.692116 72.714657 -1.234206 0.000000 -0.000000 0.000000 38.116205 -9.674063 39.514798 59.665489 22.427165 127.220504 -0.000000 -0.000000 0.000000 72.627844 -0.312090 -25.838261 -18.791714 3.762108 -80.957296 
-4.539678 6.764924 0.454115 14.485101 49.033371 -17.187715 0.000000 -0.000000 0.000000 2.651067 10.915107 -56.700876 2.881404 -5.098044 11.691253 0.000000 0.000000 0.000000 -3.766067 3.888749 11.443726 -33.713220 12.194160 -5.926973 15.695634 0.124452 -9.696704 -92.328058 -31.072133 16.134657 -150.243467 45.394582 -116.518642 175.836367 -25.223275 179.163531 6.963034 1.881365 -10.827345 32.468809 4.485394 -9.559129 24.049856 71.337966 -117.250468 -173.324879 56.277800 -174.619998 0.000000 -0.000000 0.000000 31.685493 -13.976471 38.419423 73.276794 25.880086 125.274945 -0.000000 -0.000000 0.000000 67.786745 6.116998 -33.103080 -20.644473 7.325543 -75.919049 
-6.683074 9.386272 0.689532 14.107820 55.895833 -17.069118 0.000000 -0.000000 0.000000 4.524003 13.474593 -57.740851 1.706680 -5.460984 11.079620 0.000000 0.000000 0.000000 -4.897876 4.069209 12.885118 -39.779556 15.354006 -2.179645 14.069532 -1.791467 -9.655706 -97.770297 -28.430148 15.185069 -148.670750 48.353454 -117.844822 176.575062 -23.522054 178.853171 6.056422 0.615800 -11.383600 35.548813 1.160261 -11.798395 35.329078 58.996434 -119.775987 -174.815077 35.565777 -176.229614 -0.000000 -0.000000 0.000000 29.179537 -17.835756 39.350870 75.493697 28.711931 122.713251 -0.000000 -0.000000 0.000000 67.377093 6.434623 -35.621734 -20.717073 7.112126 -73.200980 
-8.976471 12.132290 1.112713 13.095202 63.101462 -17.410605 0.000000 -0.000000 0.000000 6.373431 15.129338 -55.661215 0.783925 -6.245247 9.514898 0.000000 0.000000 0.000000 -5.402927 3.043533 11.834894 -46.553020 15.678038 -2.748272 12.771146 -3.113774 -9.158598 -99.231708 -26.263722 14.710823 -149.145609 50.206431 -120.111049 177.000278 -25.134266 178.602990 4.025015 -1.198935 -11.164407 38.145217 -1.008660 -13.937933 38.467837 54.627144 -125.947276 -176.656310 21.684414 -177.299839 -0.000000 -0.000000 0.000000 29.904830 -19.088825 38.522560 75.319584 29.418404 121.974589 -0.000000 -0.000000 0.000000 67.659888 5.881815 -37.015868 -21.489618 8.269303 -70.900749 
-11.371601 14.990664 1.659876 12.190628 68.316056 -17.780611 0.000000 -0.000000 0.000000 7.349077 15.098064 -52.821324 0.054644 -7.499927 7.810942 0.000000 0.000000 0.000000 -5.829286 2.087429 10.701284 -52.260451 16.849834 -3.506221 11.475490 -3.841199 -8.634197 -99.464045 -25.329547 14.028789 -151.565367 51.158747 -122.566721 177.028933 -26.964616 178.494061 2.565039 -2.686324 -10.577168 42.034089 -2.727489 -15.574421 40.212012 51.254442 -130.037142 -177.756403 20.840343 -177.242156 -0.000000 -0.000000 0.000000 31.774340 -20.284437 35.323022 74.769343 30.081421 120.973307 -0.000000 -0.000000 0.000000 68.540476 5.231297 -36.870453 -22.340609 9.201693 -68.821010 
-13.814913 17.959637 2.298203 11.158483 72.153671 -18.411108 0.000000 -0.000000 0.000000 7.823703 14.677441 -50.334384 -0.424133 -9.107479 6.209495 0.000000 0.000000 0.000000 -5.952172 1.031931 9.813541 -55.380909 19.080475 -3.230035 9.598716 -4.335241 -7.972773 -99.205774 -24.644192 13.027022 -154.812097 51.494064 -124.681562 176.938505 -27.663384 178.454759 1.098231 -3.928158 -9.616350 46.142685 -4.888455 -17.302510 42.204722 47.926999 -131.777829 -178.096847 22.987145 -177.272386 -0.000000 -0.000000 0.000000 34.792491 -21.241603 32.069228 73.129912 30.640409 119.488210 -0.000000 -0.000000 0.000000 69.240011 4.759860 -36.355642 -22.940364 10.191607 -68.070062 
-16.262924 20.910980 3.010704 10.320451 75.345263 -18.904863 0.000000 -0.000000 0.000000 7.956003 14.179357 -48.216430 -0.637192 -11.188309 4.211036 0.000000 0.000000 0.000000 -6.061712 0.019725 8.902395 -57.476289 20.664183 -2.998796 7.981292 -4.680268 -7.413085 -99.010356 -24.247892 12.262644 -157.437120 51.779619 -126.246189 176.857948 -28.419818 178.396711 -0.204174 -4.753111 -8.703820 49.700352 -5.737043 -18.245854 43.252856 46.146712 -132.640745 -178.420644 25.420093 -177.206845 -0.000000 -0.000000 0.000000 37.454105 -21.915100 29.327407 70.442640 30.868278 117.554455 -0.000000 -0.000000 0.000000 70.822193 5.109127 -34.751874 -23.279330 11.239671 -66.906946 
-18.667490 23.800314 3.737514 9.450405 78.454357 -19.249915 0.000000 -0.000000 0.000000 8.117295 13.987595 -46.133315 -0.730626 -13.151922 2.637009 0.000000 0.000000 0.000000 -6.217814 -0.803694 8.032742 -59.840366 21.317500 -3.494947 6.428165 -4.808976 -7.103350 -98.699599 -23.537548 11.138101 -158.842126 51.981339 -127.108270 176.818790 -29.581253 178.311166 -1.420427 -5.661781 -7.844162 51.555329 -4.816434 -17.667442 43.872326 45.601651 -132.854576 -178.820452 26.872805 -177.140182 -0.000000 -0.000000 0.000000 39.590798 -22.059206 26.582155 67.111828 30.484683 115.591952 -0.000000 -0.000000 0.000000 72.231348 6.373123 -33.626647 -23.315957 12.194201 -64.675809 
-21.023289 26.599077 4.477766 8.598213 81.284889 -19.484187 0.000000 -0.000000 0.000000 8.191617 13.780500 -44.242545 -0.765957 -14.654073 1.380164 0.000000 0.000000 0.000000 -6.443974 -1.611845 7.306124 -62.444163 20.986503 -5.137540 5.002299 -4.835199 -6.718904 -98.305918 -22.793706 9.984222 -159.831419 52.008325 -127.778422 176.811305 -30.857692 178.197277 -2.547432 -6.396007 -7.146943 52.423663 -3.813238 -16.977643 44.061934 45.723073 -132.987544 -179.092877 27.512082 -177.128743 -0.000000 -0.000000 0.000000 41.347119 -21.642314 23.865035 63.489055 29.324753 113.882579 -0.000000 -0.000000 0.000000 73.056648 8.500991 -33.321006 -23.164379 13.288271 -62.054622 
